<svg width="293" height="95" viewBox="0 0 293 95" fill="none" xmlns="http://www.w3.org/2000/svg">
<rect x="53" y="6" width="80" height="82" rx="10" fill="#FCA311"/>
<path d="M22.8 41.56V49.16C20.24 49.16 18.2667 49.1867 16.88 49.24C16.72 54.5733 16.64 63.5333 16.64 76.12L7.2 75.24C7.2 65.9067 7.28 57.4533 7.44 49.88C6.64 49.88 5.12 50.0133 2.88 50.28L1.68 43.72C2.96 43.4533 4.96 43.1067 7.68 42.68C7.78667 38.7333 8 32.9733 8.32 25.4L17.84 26.28C17.52 31.56 17.28 36.68 17.12 41.64C18.4533 41.5867 20.3467 41.56 22.8 41.56ZM34.2488 60.6C34.2488 66.6267 35.5821 69.64 38.2488 69.64C39.4221 69.64 40.4088 67.96 41.2088 64.6C42.0088 61.1867 42.4088 57.9333 42.4088 54.84C42.4088 48.0133 41.2888 44.6 39.0488 44.6C37.6088 44.6 36.4354 46.44 35.5288 50.12C34.6754 53.7467 34.2488 57.24 34.2488 60.6ZM24.8888 59.88C24.8888 54.92 25.9021 50.0667 27.9288 45.32C28.9954 42.92 30.4888 40.9733 32.4088 39.48C34.3821 37.9333 36.5688 37.16 38.9688 37.16C41.3688 37.16 43.4221 37.72 45.1288 38.84C46.8888 39.9067 48.2221 41.3467 49.1288 43.16C50.8888 46.7333 51.7688 50.6267 51.7688 54.84C51.7688 60.6533 50.5688 65.8267 48.1688 70.36C45.8221 74.84 42.5154 77.08 38.2488 77.08C29.3421 77.08 24.8888 71.3467 24.8888 59.88Z" fill="#14213D"/>
<g filter="url(#filter0_d)">
<path d="M70.04 18.92C76.28 18.92 81.08 21.3733 84.44 26.28C87.8533 31.1867 89.56 37.1333 89.56 44.12C89.56 49.5067 88.7067 54.6 87 59.4C85.2933 64.1467 82.6267 68.1467 79 71.4C75.3733 74.6 71.1333 76.2 66.28 76.2C65.32 76.2 61.6933 75.8267 55.4 75.08C56.1467 63.6133 56.52 54.12 56.52 46.6C56.52 39.08 56.28 30.76 55.8 21.64C60.9733 19.8267 65.72 18.92 70.04 18.92ZM68.28 66.44C70.7333 66.44 73.16 64.28 75.56 59.96C78.0133 55.5867 79.24 50.8933 79.24 45.88C79.24 40.8133 78.36 36.6533 76.6 33.4C74.8933 30.1467 72.84 28.52 70.44 28.52C69.16 28.52 67.96 28.7333 66.84 29.16C67.0533 37.0533 67.16 43.6933 67.16 49.08C67.16 54.4133 67 59.9867 66.68 65.8C67.0533 66.2267 67.5867 66.44 68.28 66.44ZM111.956 77.72C106.89 77.72 102.596 75.4533 99.0763 70.92C95.6096 66.3333 93.8763 59.4 93.8763 50.12C93.8763 40.7867 95.7696 33.1867 99.5563 27.32C103.396 21.4533 107.903 18.52 113.076 18.52C118.25 18.52 122.543 20.8133 125.956 25.4C129.423 29.9867 131.156 36.8933 131.156 46.12C131.156 55.3467 129.236 62.92 125.396 68.84C121.556 74.76 117.076 77.72 111.956 77.72ZM113.156 28.04C110.81 28.04 108.783 30.12 107.076 34.28C105.37 38.3867 104.516 43.5867 104.516 49.88C104.516 56.12 105.236 60.76 106.676 63.8C108.17 66.7867 110.01 68.28 112.196 68.28C114.383 68.28 116.303 66.2 117.956 62.04C119.663 57.88 120.516 52.68 120.516 46.44C120.516 40.1467 119.796 35.5067 118.356 32.52C116.97 29.5333 115.236 28.04 113.156 28.04Z" fill="#FAFAFA"/>
</g>
<path d="M155.8 41.56V49.16C153.24 49.16 151.267 49.1867 149.88 49.24C149.72 54.5733 149.64 63.5333 149.64 76.12L140.2 75.24C140.2 65.9067 140.28 57.4533 140.44 49.88C139.64 49.88 138.12 50.0133 135.88 50.28L134.68 43.72C135.96 43.4533 137.96 43.1067 140.68 42.68C140.787 38.7333 141 32.9733 141.32 25.4L150.84 26.28C150.52 31.56 150.28 36.68 150.12 41.64C151.453 41.5867 153.347 41.56 155.8 41.56ZM170.449 60.6C170.449 66.6267 171.782 69.64 174.449 69.64C175.622 69.64 176.609 67.96 177.409 64.6C178.209 61.1867 178.609 57.9333 178.609 54.84C178.609 48.0133 177.489 44.6 175.249 44.6C173.809 44.6 172.635 46.44 171.729 50.12C170.875 53.7467 170.449 57.24 170.449 60.6ZM161.089 59.88C161.089 54.92 162.102 50.0667 164.129 45.32C165.195 42.92 166.689 40.9733 168.609 39.48C170.582 37.9333 172.769 37.16 175.169 37.16C177.569 37.16 179.622 37.72 181.329 38.84C183.089 39.9067 184.422 41.3467 185.329 43.16C187.089 46.7333 187.969 50.6267 187.969 54.84C187.969 60.6533 186.769 65.8267 184.369 70.36C182.022 74.84 178.715 77.08 174.449 77.08C165.542 77.08 161.089 71.3467 161.089 59.88ZM211.822 38.76L211.902 28.84C211.902 25.16 211.822 20.9733 211.662 16.28L221.022 17.08C221.129 20.8667 221.182 27.7467 221.182 37.72C221.182 47.64 220.755 60.44 219.902 76.12L212.782 75.48C212.622 73.3467 212.462 70.84 212.302 67.96C210.009 72.5467 207.529 74.84 204.862 74.84C200.755 74.84 197.902 73.56 196.302 71C194.702 68.44 193.902 64.7333 193.902 59.88C193.902 54.9733 194.942 49.9067 197.022 44.68C199.155 39.4533 201.555 36.84 204.222 36.84C206.622 36.84 209.155 37.48 211.822 38.76ZM212.062 46.2C210.729 45.1867 209.395 44.68 208.062 44.68C206.782 44.68 205.662 46.4133 204.702 49.88C203.742 53.2933 203.262 56.8667 203.262 60.6C203.262 64.3333 204.169 66.2 205.982 66.2C206.675 66.2 207.609 65.0533 208.782 62.76C209.955 60.4133 211.022 57.4533 211.982 53.88L212.062 46.2ZM231.514 51.4C232.314 47.24 233.834 43.72 236.074 40.84C238.314 37.9067 241.248 36.44 244.874 36.44C248.501 36.44 251.168 37.96 252.874 41C254.634 43.9867 255.514 48.2533 255.514 53.8C255.514 59.3467 255.194 67 254.554 76.76L247.834 76.2L247.194 73.64C244.688 75.08 242.128 75.8 239.514 75.8C236.901 75.8 234.741 74.9467 233.034 73.24C231.328 71.48 230.474 68.9733 230.474 65.72C230.474 62.4667 232.074 59.6667 235.274 57.32C238.528 54.9733 242.261 53.7467 246.474 53.64V51.48C246.474 47.2667 245.461 45.16 243.434 45.16C242.421 45.16 241.488 45.88 240.634 47.32C239.834 48.7067 239.248 50.3067 238.874 52.12L231.514 51.4ZM238.634 66.2C238.634 67.9067 239.648 68.76 241.674 68.76C243.061 68.76 244.528 68.44 246.074 67.8L246.234 61.08C243.728 61.2933 241.834 61.9333 240.554 63C239.274 64.0133 238.634 65.08 238.634 66.2ZM285.166 34.92L292.846 39.4C288.42 53.1067 283.886 71.2933 279.246 93.96L270.446 93.16C271.3 88.9467 272.713 83.1333 274.686 75.72C269.566 65.9067 266.34 53.5333 265.006 38.6L273.966 39.48C274.766 49.2933 276.046 57.6667 277.806 64.6C280.26 53.1867 282.713 43.2933 285.166 34.92Z" fill="#14213D"/>
<defs>
<filter id="filter0_d" x="52.4" y="16.52" width="83.7562" height="67.2" filterUnits="userSpaceOnUse" color-interpolation-filters="sRGB">
<feFlood flood-opacity="0" result="BackgroundImageFix"/>
<feColorMatrix in="SourceAlpha" type="matrix" values="0 0 0 0 0 0 0 0 0 0 0 0 0 0 0 0 0 0 127 0"/>
<feOffset dx="1" dy="2"/>
<feGaussianBlur stdDeviation="2"/>
<feColorMatrix type="matrix" values="0 0 0 0 0 0 0 0 0 0 0 0 0 0 0 0 0 0 0.25 0"/>
<feBlend mode="normal" in2="BackgroundImageFix" result="effect1_dropShadow"/>
<feBlend mode="normal" in="SourceGraphic" in2="effect1_dropShadow" result="shape"/>
</filter>
</defs>
</svg>
