<svg width="26" height="30" viewBox="0 0 26 30" fill="none" xmlns="http://www.w3.org/2000/svg">
<path d="M15.5536 24.375H16.9464C17.1311 24.375 17.3083 24.3009 17.4389 24.1691C17.5695 24.0372 17.6429 23.8584 17.6429 23.6719V11.0156C17.6429 10.8291 17.5695 10.6503 17.4389 10.5184C17.3083 10.3866 17.1311 10.3125 16.9464 10.3125H15.5536C15.3689 10.3125 15.1917 10.3866 15.0611 10.5184C14.9305 10.6503 14.8571 10.8291 14.8571 11.0156V23.6719C14.8571 23.8584 14.9305 24.0372 15.0611 24.1691C15.1917 24.3009 15.3689 24.375 15.5536 24.375ZM25.0714 4.6875H20.2887L18.3155 1.36523C18.0679 0.948642 17.7176 0.603921 17.2987 0.364662C16.8799 0.125404 16.4068 -0.000231058 15.9256 3.19011e-07H10.0744C9.59339 -2.86388e-05 9.12054 0.125702 8.70193 0.364951C8.28332 0.6042 7.9332 0.948812 7.68567 1.36523L5.71129 4.6875H0.928571C0.682299 4.6875 0.446113 4.78627 0.271972 4.96209C0.0978314 5.1379 0 5.37636 0 5.625L0 6.5625C0 6.81114 0.0978314 7.0496 0.271972 7.22541C0.446113 7.40123 0.682299 7.5 0.928571 7.5H1.85714V27.1875C1.85714 27.9334 2.15064 28.6488 2.67306 29.1762C3.19548 29.7037 3.90404 30 4.64286 30H21.3571C22.096 30 22.8045 29.7037 23.3269 29.1762C23.8494 28.6488 24.1429 27.9334 24.1429 27.1875V7.5H25.0714C25.3177 7.5 25.5539 7.40123 25.728 7.22541C25.9022 7.0496 26 6.81114 26 6.5625V5.625C26 5.37636 25.9022 5.1379 25.728 4.96209C25.5539 4.78627 25.3177 4.6875 25.0714 4.6875ZM9.97286 2.98301C10.0039 2.93085 10.0478 2.88773 10.1003 2.85784C10.1528 2.82795 10.2121 2.81233 10.2723 2.8125H15.7277C15.7878 2.81243 15.847 2.8281 15.8994 2.85798C15.9518 2.88787 15.9956 2.93094 16.0266 2.98301L17.0399 4.6875H8.96013L9.97286 2.98301ZM21.3571 27.1875H4.64286V7.5H21.3571V27.1875ZM9.05357 24.375H10.4464C10.6311 24.375 10.8083 24.3009 10.9389 24.1691C11.0695 24.0372 11.1429 23.8584 11.1429 23.6719V11.0156C11.1429 10.8291 11.0695 10.6503 10.9389 10.5184C10.8083 10.3866 10.6311 10.3125 10.4464 10.3125H9.05357C8.86887 10.3125 8.69173 10.3866 8.56112 10.5184C8.43052 10.6503 8.35714 10.8291 8.35714 11.0156V23.6719C8.35714 23.8584 8.43052 24.0372 8.56112 24.1691C8.69173 24.3009 8.86887 24.375 9.05357 24.375Z" fill="#BD2929" fill-opacity="0.7"/>
</svg>
